# xmcd CD database file generated by OrangeCD 6.3
#
# Track frame offsets:
#	150
#	20607
#	40762
#	55739
#	76683
#	96467
#	112225
#	143574
#	163861
#	190844
#	210926
#	229043
#
# Disc length: 3273 seconds
#
# Revision: 2
# Processed by: cddbd v1.5.2PL0 Copyright (c) Steve Scherf et al.
# Submitted via: OrangeCD 6.3
#
DISCID=980cc70c
DTITLE=Various Artist - Big Blues Collection
DYEAR=1900
DGENRE=Blues
TTITLE0=Luther Allison - Nobody but you
TTITLE1=Buddy Guy - She's out there somewhere
TTITLE2=B. B. King - Summer in the city
TTITLE3=Otis Rush - Little red roadster
TTITLE4=Junior Wells - Don't you lie to me
TTITLE5=Jimmy Rushing - Did you ever
TTITLE6=Albert Collins - Lights are on but nobody's home
TTITLE7=Billy Boy Arnold - Whiskey,Beer and Reefer
TTITLE8=Luther Allison - Just memories
TTITLE9=Otis Rush - You got me running
TTITLE10=John Lee Hooker - Don't look back
TTITLE11=Peter Green - You won't see me anymore
EXTD=Efes Pilsener blues collectionTome 8 (Jam #2)
EXTT0=
EXTT1=
EXTT2=
EXTT3=
EXTT4=
EXTT5=
EXTT6=
EXTT7=
EXTT8=
EXTT9=
EXTT10=
EXTT11=
PLAYORDER=
